<?xml version="1.0" encoding="UTF-8" standalone="no"?>
<!DOCTYPE svg PUBLIC "-//W3C//DTD SVG 1.1//EN" "http://www.w3.org/Graphics/SVG/1.1/DTD/svg11.dtd">
<svg width="100%" height="100%" viewBox="0 0 30 30" version="1.1" xmlns="http://www.w3.org/2000/svg" xmlns:xlink="http://www.w3.org/1999/xlink" xml:space="preserve" xmlns:serif="http://www.serif.com/" style="fill-rule:evenodd;clip-rule:evenodd;stroke-linejoin:round;stroke-miterlimit:2;">
    <g transform="matrix(0.433972,0.619777,-0.62479,0.437483,2.59546,0.767683)">
        <path d="M36.201,4.665C36.201,4.162 35.79,3.754 35.283,3.754L4.059,3.754C3.552,3.754 3.141,4.162 3.141,4.665C3.141,5.167 3.552,5.576 4.059,5.576L35.283,5.576C35.79,5.576 36.201,5.167 36.201,4.665Z"/>
    </g>
    <g transform="matrix(0.433972,-0.619777,0.62479,0.437483,10.3312,25.151)">
        <path d="M36.201,4.665C36.201,4.162 35.79,3.754 35.283,3.754L4.059,3.754C3.552,3.754 3.141,4.162 3.141,4.665C3.141,5.167 3.552,5.576 4.059,5.576L35.283,5.576C35.79,5.576 36.201,5.167 36.201,4.665Z"/>
    </g>
</svg>
